<?xml version="1.0" encoding="UTF-8"?>
<svg version="1.1" xmlns="http://www.w3.org/2000/svg" width="256" height="256">
<path d="M0 0 C84.48 0 168.96 0 256 0 C256 84.48 256 168.96 256 256 C171.52 256 87.04 256 0 256 C0 171.52 0 87.04 0 0 Z " fill="#000000" transform="translate(0,0)"/>
<path d="M0 0 C1.67427277 -0.01201074 3.34852108 -0.02801683 5.02272034 -0.04777527 C8.51316713 -0.0727653 11.9985705 -0.04738691 15.48852539 0.0144043 C19.92527664 0.08858419 24.34920588 0.03094018 28.78520679 -0.06087685 C58.71733724 -0.59123221 58.71733724 -0.59123221 66.61181641 6.96113586 C68.76149412 9.53824777 70.59373759 12.18273853 72.28134155 15.0819397 C73.79838737 17.58729035 75.71527277 19.55065982 77.78125 21.61328125 C78.38130859 22.25523438 78.98136719 22.8971875 79.59960938 23.55859375 C80.16615234 24.16445313 80.73269531 24.7703125 81.31640625 25.39453125 C81.91001953 26.03132813 82.50363281 26.668125 83.11523438 27.32421875 C86.64994126 31.1017681 90.25162635 34.78891658 93.95556641 38.40112305 C95.37890625 39.89453125 95.37890625 39.89453125 96.81640625 42.20703125 C99.37549117 44.97084296 102.7623911 45.0778988 106.37890625 45.89453125 C107.79332499 48.72336872 107.69790957 50.7682987 107.37890625 53.89453125 C105.69140625 55.83203125 105.69140625 55.83203125 103.37890625 56.89453125 C100.00854314 56.65379103 98.79092604 56.30655104 96.37890625 53.89453125 C93.46388358 53.60073298 93.46388358 53.60073298 90.00146484 53.66748047 C89.34768356 53.66718842 88.69390228 53.66689636 88.02030945 53.66659546 C85.85585329 53.6679906 83.69173989 53.68356005 81.52734375 53.69921875 C80.02804757 53.70294823 78.52874895 53.70579551 77.02944946 53.70779419 C73.08053882 53.71543577 69.13177496 53.73508865 65.18292236 53.75720215 C61.15452053 53.77764935 57.12609501 53.78679349 53.09765625 53.796875 C45.19133884 53.81833414 37.2851408 53.8524763 29.37890625 53.89453125 C33.96942009 58.61173107 38.57935636 63.30928647 43.20336914 67.99365234 C44.77432878 69.58976941 46.34077338 71.19034339 47.90258789 72.79541016 C50.14730832 75.10072164 52.40773529 77.3895595 54.671875 79.67578125 C55.36790329 80.39761597 56.06393158 81.11945068 56.78105164 81.86315918 C57.4413588 82.52384399 58.10166595 83.18452881 58.78198242 83.86523438 C59.35712082 84.45147583 59.93225922 85.03771729 60.52482605 85.64172363 C62.92642972 87.26449452 64.53416534 87.00248274 67.37890625 86.89453125 C69.62890625 88.45703125 69.62890625 88.45703125 71.37890625 90.89453125 C71.51594971 92.52080444 71.51594971 92.52080444 71.65576172 94.17993164 C72.53158319 98.67879176 74.47240341 100.75055633 77.69921875 103.765625 C78.50454544 104.55465965 78.50454544 104.55465965 79.32614136 105.3596344 C81.03838969 107.03190764 82.76992375 108.68233286 84.50390625 110.33203125 C86.76151875 112.51308736 89.01138648 114.70206216 91.26171875 116.890625 C91.80237976 117.4131485 92.34304077 117.935672 92.90008545 118.47402954 C96.47863264 121.95056309 99.85235278 125.5369374 103.05615234 129.36645508 C104.49541498 131.09302615 104.49541498 131.09302615 106.87890625 133.14453125 C108.37890625 134.89453125 108.37890625 134.89453125 108.31640625 136.62109375 C106.90736643 140.03801532 104.40959207 142.39938648 101.87890625 145.01953125 C100.78073745 146.1818076 99.68308585 147.34457283 98.5859375 148.5078125 C97.76923584 149.36753662 97.76923584 149.36753662 96.93603516 150.24462891 C91.56449845 155.93620073 86.4143764 161.83607265 81.28125 167.7421875 C78.04711648 171.40134062 74.72820248 174.98396525 71.41796875 178.57421875 C69.36313297 180.71400007 69.36313297 180.71400007 68.37890625 182.89453125 C67.18813477 182.90911377 65.99736328 182.92369629 64.77050781 182.9387207 C60.34963048 182.9967236 55.92926144 183.0739564 51.50878906 183.15698242 C49.59611261 183.19022239 47.68333828 183.21825724 45.77050781 183.2409668 C43.01975831 183.27452994 40.26990493 183.32684614 37.51953125 183.3828125 C36.2380722 183.39239738 36.2380722 183.39239738 34.9307251 183.4021759 C30.35774973 183.51524903 27.91229556 183.75814603 24.37890625 186.89453125 C21.12890625 186.58203125 21.12890625 186.58203125 18.37890625 185.89453125 C18.04890625 184.90453125 17.71890625 183.91453125 17.37890625 182.89453125 C16.19639282 183.07520142 16.19639282 183.07520142 14.98999023 183.25952148 C-7.96721178 186.28594796 -7.96721178 186.28594796 -16.18652344 180.76611328 C-23.72319153 174.92152787 -29.70686968 167.30315417 -35.62109375 159.89453125 C-37.92358249 157.2001236 -40.26614811 154.5431197 -42.62109375 151.89453125 C-43.8121875 150.55068359 -43.8121875 150.55068359 -45.02734375 149.1796875 C-49.47755537 144.15303373 -49.47755537 144.15303373 -55.55859375 141.95703125 C-57.07453125 141.92609375 -57.07453125 141.92609375 -58.62109375 141.89453125 C-60.62109375 139.89453125 -60.62109375 139.89453125 -60.99609375 136.45703125 C-60.62109375 132.89453125 -60.62109375 132.89453125 -58.93359375 130.89453125 C-55.97398841 129.61470191 -54.60899566 129.71509628 -51.62109375 130.89453125 C-50.96109375 132.21453125 -50.30109375 133.53453125 -49.62109375 134.89453125 C-27.51109375 134.89453125 -5.40109375 134.89453125 17.37890625 134.89453125 C12.038584 128.75659484 12.038584 128.75659484 6.546875 122.78125 C5.898396 122.09554932 5.24991699 121.40984863 4.58178711 120.70336914 C3.2039503 119.25309367 1.82584542 117.80307286 0.44750977 116.35327148 C-2.64343414 113.09181734 -5.71463797 109.83242215 -8.63671875 106.41796875 C-9.4771875 105.44085938 -10.31765625 104.46375 -11.18359375 103.45703125 C-11.88613281 102.61269531 -12.58867188 101.76835937 -13.3125 100.8984375 C-16.22228216 98.37268751 -18.92174605 97.82260564 -22.62109375 96.89453125 C-24.62109375 94.89453125 -24.62109375 94.89453125 -24.92578125 91.609375 C-25.78943889 86.99511423 -27.32226986 85.59631391 -30.74609375 82.45703125 C-34.08170548 79.31924468 -37.34187838 76.20376305 -40.30859375 72.70703125 C-43.30207306 69.19420131 -46.50901413 65.96302432 -49.82421875 62.75390625 C-51.62109375 60.89453125 -51.62109375 60.89453125 -53.1328125 58.69921875 C-55.43635075 55.90595189 -58.15309347 56.27285855 -61.62109375 55.89453125 C-63.62109375 53.89453125 -63.62109375 53.89453125 -63.93359375 50.95703125 C-63.62109375 47.89453125 -63.62109375 47.89453125 -62.49609375 46.01953125 C-59.84074392 44.42632135 -57.65319857 44.69239093 -54.62109375 44.89453125 C-54.31365234 44.10755859 -54.31365234 44.10755859 -54 43.3046875 C-52.01599178 39.83688843 -49.31599732 37.2019819 -46.55859375 34.33203125 C-42.58530164 30.13219178 -38.72994802 25.91735978 -35.12109375 21.39453125 C-34.45247818 20.58183273 -33.78386261 19.76913422 -33.09498596 18.93180847 C-31.81603423 17.3615982 -30.54050363 15.78739147 -29.32313347 14.16897011 C-20.67035026 2.71782363 -14.17063698 -0.25923105 0 0 Z " fill="#18E180" transform="translate(103.62109375,35.10546875)"/>
<path d="M0 0 C6.88025139 5.89735833 12.97997195 11.74625434 18.82421875 18.625 C20.60604936 20.56997848 22.41804121 22.37732861 24.33203125 24.1875 C24.92419434 24.75388184 25.51635742 25.32026367 26.12646484 25.90380859 C27.31620296 27.03452493 28.5181331 28.15257552 29.73291016 29.25634766 C33.94418367 33.28039872 33.94418367 33.28039872 34.25390625 37.2734375 C34.12822266 38.62308594 34.12822266 38.62308594 34 40 C35.91471089 42.34432592 35.91471089 42.34432592 39.25 42.27734375 C43.85431061 43.16463277 45.95621132 45.22853881 49 48.5625 C49.52416504 49.11115723 50.04833008 49.65981445 50.58837891 50.22509766 C53.81819876 53.6310713 56.92199422 57.13794798 59.93359375 60.73828125 C61.73667118 62.71178188 63.58839568 64.52687731 65.53515625 66.35546875 C66.17469238 66.96471191 66.81422852 67.57395508 67.47314453 68.20166016 C68.76048594 69.42116254 70.06193338 70.6259824 71.37841797 71.81396484 C74.41051539 74.70499634 75.84657205 76.32431237 76.79296875 80.4921875 C75.69941362 85.32968753 73.34940664 87.65020974 69.875 91.0625 C69.24988525 91.70372803 68.62477051 92.34495605 67.98071289 93.00561523 C66.00519583 95.02261297 64.00580236 97.0131524 62 99 C60.7091453 100.29117685 59.41877016 101.58283335 58.12890625 102.875 C56.32947336 104.67653995 54.52751242 106.47433053 52.70849609 108.25610352 C50.06780768 110.85341868 47.61157635 113.43992736 45.328125 116.359375 C42.34174188 119.74661491 40.3725925 119.58749127 36 120 C35.34 120.99 34.68 121.98 34 123 C24.98991747 124.83661706 10.96405089 125.73721941 2.47216797 121.83984375 C-1.34366066 119.09793096 -4.07717067 115.70020644 -6.70776367 111.84228516 C-12.37658597 103.76049164 -19.90670073 97.03926273 -26.94335938 90.18359375 C-27.72388672 89.41402344 -28.50441406 88.64445312 -29.30859375 87.8515625 C-30.01814209 87.15885254 -30.72769043 86.46614258 -31.45874023 85.75244141 C-33 84 -33 84 -33 82 C-24.4465123 81.93052605 -15.89314225 81.87720224 -7.33944225 81.84456348 C-3.36771373 81.82889944 0.60382193 81.80764801 4.57543945 81.77368164 C8.40743089 81.74111404 12.23923668 81.72315255 16.07135582 81.71536827 C17.53422659 81.70982004 18.99708707 81.69898575 20.45987892 81.68280983 C22.50708696 81.66106921 24.5535254 81.65803153 26.60083008 81.65942383 C28.34956169 81.64943108 28.34956169 81.64943108 30.13362122 81.63923645 C33.32167115 82.04048566 34.02401279 82.59060751 36 85 C38.05363606 85.3606631 38.05363606 85.3606631 40.1875 85.1875 C41.445625 85.125625 42.70375 85.06375 44 85 C44.39909856 80.3199914 44.39909856 80.3199914 42.8125 76.0625 C41.00781473 74.77728482 41.00781473 74.77728482 38.62890625 75.15234375 C35.2226906 74.95495532 34.41360699 73.96903658 32.125 71.5 C31.50882812 70.8503125 30.89265625 70.200625 30.2578125 69.53125 C28.40835657 67.45781151 26.58277873 65.36775983 24.76171875 63.26953125 C20.16935645 58.00550527 15.34146077 52.9706888 10.52148438 47.91601562 C9.83763672 47.19478516 9.15378906 46.47355469 8.44921875 45.73046875 C7.83393311 45.08489014 7.21864746 44.43931152 6.5847168 43.77416992 C2.98438268 39.74341534 2.80024728 37.29344706 3 32 C2.01 31.67 1.02 31.34 0 31 C0 20.77 0 10.54 0 0 Z " fill="#000201" transform="translate(87,91)"/>
<path d="M0 0 C0.81548813 -0.01377182 1.63097626 -0.02754364 2.47117615 -0.04173279 C4.20019759 -0.06501 5.92930887 -0.0822728 7.65844727 -0.09399414 C10.27597722 -0.12076022 12.88935889 -0.19561155 15.50585938 -0.27148438 C24.2280491 -0.40953402 30.91171414 -0.42898303 37.84643555 5.5324707 C38.47332275 6.16241943 39.10020996 6.79236816 39.74609375 7.44140625 C40.30272705 7.96629639 40.85936035 8.49118652 41.43286133 9.03198242 C42.81065214 10.39747763 44.09572391 11.85479192 45.37109375 13.31640625 C46.20898438 14.26257813 47.046875 15.20875 47.91015625 16.18359375 C49.74609375 18.44140625 49.74609375 18.44140625 49.74609375 19.44140625 C45.10135393 19.51556692 40.45695876 19.5700124 35.81176758 19.60620117 C34.23162839 19.62128719 32.65153106 19.64175875 31.0715332 19.66772461 C28.8001879 19.70411751 26.52939616 19.72113387 24.2578125 19.734375 C23.19828621 19.75760078 23.19828621 19.75760078 22.11735535 19.78129578 C17.1513428 19.78299954 17.1513428 19.78299954 14.96801758 17.94262695 C14.36316528 17.19952271 14.36316528 17.19952271 13.74609375 16.44140625 C10.70397944 16.02465105 10.70397944 16.02465105 7.74609375 16.44140625 C7.08609375 17.10140625 6.42609375 17.76140625 5.74609375 18.44140625 C6.06935928 22.03819691 6.06935928 22.03819691 6.74609375 25.44140625 C7.73504639 25.45679443 8.72399902 25.47218262 9.74291992 25.48803711 C15.10978341 26.27500204 18.13415872 29.96916436 21.796875 33.6953125 C22.53689255 34.42958969 23.2769101 35.16386688 24.03935242 35.9203949 C25.59717854 37.47414653 27.14748703 39.03546742 28.69067383 40.60375977 C31.04737605 42.99253588 33.43428993 45.34768211 35.82617188 47.70117188 C37.33916663 49.21813251 38.85029853 50.73695388 40.359375 52.2578125 C41.42651482 53.30673424 41.42651482 53.30673424 42.51521301 54.37684631 C46.96867677 58.95832411 48.57611233 62.17810861 49.74609375 68.44140625 C50.40609375 68.77140625 51.06609375 69.10140625 51.74609375 69.44140625 C51.74609375 80.00140625 51.74609375 90.56140625 51.74609375 101.44140625 C45.01565145 95.67245571 38.66341529 89.68407094 32.36499023 83.46533203 C31.07461553 82.19665115 29.77800872 80.93427876 28.4753418 79.67822266 C26.57553427 77.84552336 24.69635719 75.99369938 22.8203125 74.13671875 C22.24012863 73.58436554 21.65994476 73.03201233 21.06217957 72.46292114 C16.99440098 68.37415834 15.73067657 65.12571557 14.74609375 59.44140625 C13.77671875 59.46203125 12.80734375 59.48265625 11.80859375 59.50390625 C5.34081982 58.58927155 1.21383586 52.34038126 -2.77954102 47.64916992 C-5.9228544 43.97948382 -9.14855205 40.51352891 -12.65625 37.1875 C-13.40068359 36.47787109 -14.14511719 35.76824219 -14.91210938 35.03710938 C-16.44805208 33.58276774 -17.99524415 32.14022642 -19.55273438 30.70898438 C-22.88700818 27.49744457 -24.99141676 25.44063094 -26.18359375 20.90234375 C-24.8456774 15.92169716 -22.04843077 13.20039358 -18.44140625 9.62890625 C-17.79880859 8.96181641 -17.15621094 8.29472656 -16.49414062 7.60742188 C-11.14205454 2.11113451 -7.81224433 0.1159045 0 0 Z " fill="#000100" transform="translate(115.25390625,64.55859375)"/>
<path d="M0 0 C0.72868286 -0.02424042 1.45736572 -0.04848083 2.20812988 -0.07345581 C8.97578532 -0.28591751 15.74551369 -0.40995725 22.51570415 -0.50775146 C27.05988525 -0.57452579 31.59936299 -0.6695486 36.14111328 -0.83496094 C67.91809592 -1.96354369 67.91809592 -1.96354369 75.34179688 3.46289062 C78.47881402 6.45865281 80.81109334 9.76847966 82.95480347 13.52587891 C84.45533224 16.04963929 86.36901465 18.00607002 88.44262695 20.0703125 C89.04268555 20.71226563 89.64274414 21.35421875 90.26098633 22.015625 C90.8275293 22.62148438 91.39407227 23.22734375 91.9777832 23.8515625 C92.57139648 24.48835938 93.16500977 25.12515625 93.77661133 25.78125 C97.31131822 29.55879935 100.91300331 33.24594783 104.61694336 36.8581543 C106.0402832 38.3515625 106.0402832 38.3515625 107.4777832 40.6640625 C110.03686812 43.42787421 113.42376805 43.53493005 117.0402832 44.3515625 C118.45470194 47.18039997 118.35928652 49.22532995 118.0402832 52.3515625 C116.3527832 54.2890625 116.3527832 54.2890625 114.0402832 55.3515625 C110.6699201 55.11082228 109.452303 54.76358229 107.0402832 52.3515625 C104.12526053 52.05776423 104.12526053 52.05776423 100.6628418 52.12451172 C100.00906052 52.12421967 99.35527924 52.12392761 98.6816864 52.12362671 C96.51723024 52.12502185 94.35311685 52.1405913 92.1887207 52.15625 C90.68942452 52.15997948 89.1901259 52.16282676 87.69082642 52.16482544 C83.74191577 52.17246702 79.79315191 52.1921199 75.84429932 52.2142334 C71.81589748 52.2346806 67.78747196 52.24382474 63.7590332 52.25390625 C55.85271579 52.27536539 47.94651775 52.30950755 40.0402832 52.3515625 C44.63079704 57.06876232 49.24073331 61.76631772 53.86474609 66.45068359 C55.43570573 68.04680066 57.00215033 69.64737464 58.56396484 71.25244141 C60.80868527 73.55775289 63.06911225 75.84659075 65.33325195 78.1328125 C66.02928024 78.85464722 66.72530853 79.57648193 67.44242859 80.32019043 C68.10273575 80.98087524 68.76304291 81.64156006 69.44335938 82.32226562 C70.01849777 82.90850708 70.59363617 83.49474854 71.186203 84.09875488 C73.58780668 85.72152577 75.19554229 85.45951399 78.0402832 85.3515625 C80.2902832 86.9140625 80.2902832 86.9140625 82.0402832 89.3515625 C82.17732666 90.97783569 82.17732666 90.97783569 82.31713867 92.63696289 C83.19296014 97.13582301 85.13378037 99.20758758 88.3605957 102.22265625 C89.16592239 103.0116909 89.16592239 103.0116909 89.98751831 103.81666565 C91.69976665 105.48893889 93.43130071 107.13936411 95.1652832 108.7890625 C97.4228957 110.97011861 99.67276343 113.15909341 101.9230957 115.34765625 C102.46375671 115.87017975 103.00441772 116.39270325 103.5614624 116.93106079 C107.14000959 120.40759434 110.51372973 123.99396865 113.7175293 127.82348633 C115.15679194 129.5500574 115.15679194 129.5500574 117.5402832 131.6015625 C119.0402832 133.3515625 119.0402832 133.3515625 118.9777832 135.078125 C117.56874338 138.49504657 115.07096902 140.85641773 112.5402832 143.4765625 C111.4421144 144.63883885 110.3444628 145.80160408 109.24731445 146.96484375 C108.43061279 147.82456787 108.43061279 147.82456787 107.59741211 148.70166016 C102.2258754 154.39323198 97.07575336 160.2931039 91.94262695 166.19921875 C88.70849343 169.85837187 85.38957943 173.4409965 82.0793457 177.03125 C80.02450992 179.17103132 80.02450992 179.17103132 79.0402832 181.3515625 C77.84951172 181.36614502 76.65874023 181.38072754 75.43188477 181.39575195 C71.01100744 181.45375485 66.59063839 181.53098765 62.17016602 181.61401367 C60.25748956 181.64725364 58.34471523 181.67528849 56.43188477 181.69799805 C53.68113526 181.73156119 50.93128188 181.78387739 48.1809082 181.83984375 C46.89944916 181.84942863 46.89944916 181.84942863 45.59210205 181.85920715 C41.01912668 181.97228028 38.57367252 182.21517728 35.0402832 185.3515625 C31.7902832 185.0390625 31.7902832 185.0390625 29.0402832 184.3515625 C28.7102832 183.3615625 28.3802832 182.3715625 28.0402832 181.3515625 C26.85776978 181.53223267 26.85776978 181.53223267 25.65136719 181.71655273 C2.69416517 184.74297921 2.69416517 184.74297921 -5.52514648 179.22314453 C-13.06181458 173.37855912 -19.04549272 165.76018542 -24.9597168 158.3515625 C-27.26220554 155.65715485 -29.60477115 153.00015095 -31.9597168 150.3515625 C-33.15081055 149.00771484 -33.15081055 149.00771484 -34.3659668 147.63671875 C-38.81617841 142.61006498 -38.81617841 142.61006498 -44.8972168 140.4140625 C-46.4131543 140.383125 -46.4131543 140.383125 -47.9597168 140.3515625 C-49.9597168 138.3515625 -49.9597168 138.3515625 -50.3347168 134.9140625 C-49.9597168 131.3515625 -49.9597168 131.3515625 -48.2722168 129.3515625 C-45.35092316 128.08830039 -43.94173032 128.33139998 -40.9597168 129.3515625 C-38.9597168 131.3515625 -38.9597168 131.3515625 -38.9597168 134.3515625 C-16.8497168 134.3515625 5.2602832 134.3515625 28.0402832 134.3515625 C28.0402832 134.6815625 28.0402832 135.0115625 28.0402832 135.3515625 C5.9302832 135.3515625 -16.1797168 135.3515625 -38.9597168 135.3515625 C-36.45876825 139.51981008 -34.48831927 142.04934218 -31.1003418 145.37109375 C-30.63287537 145.83335861 -30.16540894 146.29562347 -29.68377686 146.77189636 C-28.19714827 148.24084172 -26.70399859 149.70290637 -25.2097168 151.1640625 C-14.2271356 161.93932314 -14.2271356 161.93932314 -10.1315918 166.67578125 C-9.58100098 167.3004126 -9.03041016 167.92504395 -8.46313477 168.56860352 C-6.9597168 170.3515625 -6.9597168 170.3515625 -5.72583008 172.14428711 C-3.33546258 175.24516822 -1.69150626 176.22350495 2.22680664 176.90917969 C6.12943938 177.16677585 10.00678433 177.23595342 13.9152832 177.2265625 C15.28511314 177.24470594 16.65491053 177.26551383 18.0246582 177.2890625 C21.36381439 177.33609287 24.70086397 177.35600913 28.0402832 177.3515625 C28.7002832 176.0315625 29.3602832 174.7115625 30.0402832 173.3515625 C32.8527832 173.1640625 32.8527832 173.1640625 36.0402832 173.3515625 C36.43296387 173.83423584 36.82564453 174.31690918 37.23022461 174.81420898 C40.13238165 177.2791244 43.53530672 176.99974987 47.1887207 177.13671875 C48.39631798 177.18831398 48.39631798 177.18831398 49.62831116 177.24095154 C52.22434458 177.33036955 54.81794498 177.3805303 57.4152832 177.4140625 C58.28887482 177.42646973 59.16246643 177.43887695 60.06253052 177.45166016 C73.06093011 177.82552916 73.06093011 177.82552916 84.00073242 171.74291992 C85.91985656 169.2854894 87.59570367 166.80061263 89.0847168 164.06054688 C90.3602834 161.7792576 91.99739486 159.99210271 93.7902832 158.1015625 C94.30977539 157.49828125 94.82926758 156.895 95.36450195 156.2734375 C98.0946697 153.14233602 100.91814165 150.09524654 103.73168945 147.0390625 C106.67200302 143.61615939 109.33284614 139.96147858 112.0402832 136.3515625 C102.1402832 136.0215625 92.2402832 135.6915625 82.0402832 135.3515625 C82.0402832 135.0215625 82.0402832 134.6915625 82.0402832 134.3515625 C91.9402832 134.0215625 101.8402832 133.6915625 112.0402832 133.3515625 C106.97197317 127.43838242 106.97197317 127.43838242 101.6027832 121.9140625 C98.83707091 119.18516501 96.18613447 116.43266866 93.6652832 113.4765625 C89.09232722 108.1360418 84.04010492 103.28965802 79.0402832 98.3515625 C78.7102832 108.5815625 78.3802832 118.8115625 78.0402832 129.3515625 C77.7102832 129.3515625 77.3802832 129.3515625 77.0402832 129.3515625 C77.0402832 118.7915625 77.0402832 108.2315625 77.0402832 97.3515625 C75.3902832 97.3515625 73.7402832 97.3515625 72.0402832 97.3515625 C70.0402832 94.3515625 70.0402832 94.3515625 69.34960938 91.14208984 C68.00779074 86.20983818 64.64261362 83.21752402 61.09106445 79.703125 C60.40022263 79.00512787 59.7093808 78.30713074 58.99760437 77.58798218 C57.53865483 76.12127396 56.07331962 74.66089326 54.60205078 73.20654297 C52.35802777 70.98176209 50.14490616 68.72918282 47.93286133 66.47265625 C46.50820089 65.04770547 45.08182417 63.62446813 43.65356445 62.203125 C42.99600662 61.53028473 42.33844879 60.85744446 41.66096497 60.16421509 C37.49909977 56.10536718 34.99643746 54.84194438 29.0402832 54.3515625 C26.88525789 51.11902454 26.57172186 50.10005327 27.0402832 46.3515625 C28.1652832 44.5390625 28.1652832 44.5390625 30.0402832 43.3515625 C33.0402832 42.9765625 33.0402832 42.9765625 36.0402832 43.3515625 C36.44674072 43.84825439 36.85319824 44.34494629 37.27197266 44.85668945 C39.99971871 47.16263852 42.9303679 46.72150938 46.33325195 46.64453125 C47.03928055 46.64028641 47.74530914 46.63604156 48.47273254 46.63166809 C50.72480623 46.61489284 52.97598063 46.57724493 55.2277832 46.5390625 C56.75576506 46.52401407 58.28376096 46.51032594 59.81176758 46.49804688 C63.55523017 46.46754609 67.29675177 46.40882899 71.0402832 46.3515625 C67.4102832 42.3915625 63.7802832 38.4315625 60.0402832 34.3515625 C61.0302832 34.3515625 62.0202832 34.3515625 63.0402832 34.3515625 C63.7002832 35.0115625 64.3602832 35.6715625 65.0402832 36.3515625 C66.0302832 36.3515625 67.0202832 36.3515625 68.0402832 36.3515625 C69.3239121 37.95961704 70.5539179 39.61072932 71.75512695 41.28125 C75.77079518 45.89499647 78.38690527 47.11475075 84.48168945 47.546875 C87.19346674 47.60623184 89.89186625 47.55087808 92.6027832 47.4765625 C94.00708114 47.47461682 95.41139294 47.47718613 96.81567383 47.484375 C100.2266581 47.484375 103.63060461 47.43891658 107.0402832 47.3515625 C102.76995123 42.43768013 98.46147617 37.56776039 94.0402832 32.7890625 C93.52119385 32.22678955 93.00210449 31.6645166 92.46728516 31.08520508 C89.26210694 27.62781612 85.9889828 24.26178929 82.6184082 20.96484375 C80.24700103 18.5406082 78.07952081 15.94984811 75.91137695 13.34375 C73.47349787 10.74809586 70.80645685 8.59398658 68.0402832 6.3515625 C67.75306396 6.83625 67.46584473 7.3209375 67.16992188 7.8203125 C65.86711959 10.00433729 64.54777619 12.17788837 63.2277832 14.3515625 C62.55005859 15.49625 62.55005859 15.49625 61.85864258 16.6640625 C61.41713867 17.3859375 60.97563477 18.1078125 60.52075195 18.8515625 C60.11751709 19.521875 59.71428223 20.1921875 59.29882812 20.8828125 C58.8835083 21.3675 58.46818848 21.8521875 58.0402832 22.3515625 C57.0502832 22.3515625 56.0602832 22.3515625 55.0402832 22.3515625 C54.5452832 21.3615625 54.5452832 21.3615625 54.0402832 20.3515625 C55.40869993 17.95609114 56.81694658 15.69818645 58.3527832 13.4140625 C58.76979492 12.78048828 59.18680664 12.14691406 59.61645508 11.49414062 C60.75000674 9.77483022 61.89467032 8.06285989 63.0402832 6.3515625 C63.7002832 5.3615625 64.3602832 4.3715625 65.0402832 3.3515625 C63.73482796 3.35822433 63.73482796 3.35822433 62.40299988 3.36502075 C54.207054 3.40507061 46.01114092 3.43553322 37.81511974 3.45518684 C33.60131346 3.46563058 29.38758793 3.47980049 25.17382812 3.50244141 C21.10842913 3.52414883 17.04310788 3.53612669 12.97765541 3.54131699 C11.42548714 3.54501653 9.8733232 3.55224069 8.32118797 3.56302261 C6.14957814 3.57750976 3.97829089 3.57954163 1.80664062 3.57861328 C0.56975998 3.5830545 -0.66712067 3.58749573 -1.94148254 3.59207153 C-4.9597168 3.3515625 -4.9597168 3.3515625 -7.9597168 1.3515625 C-6.05488954 -0.55326476 -2.59879235 0.0747374 0 0 Z " fill="#1CE180" transform="translate(92.959716796875,36.6484375)"/>
<path d="M0 0 C2.89797974 -0.36076355 2.89797974 -0.36076355 6.65283203 -0.34057617 C7.33587402 -0.34101425 8.01891602 -0.34145233 8.72265625 -0.34190369 C10.98466388 -0.33981044 13.24593406 -0.31645543 15.5078125 -0.29296875 C17.07436722 -0.28737467 18.64092718 -0.28310369 20.20748901 -0.28010559 C24.33402962 -0.26864192 28.46025429 -0.23916195 32.58666992 -0.20599365 C36.79601772 -0.17532537 41.00541648 -0.16160721 45.21484375 -0.14648438 C53.47670761 -0.11429344 61.73831453 -0.06307904 70 0 C63.96043084 15.29645097 63.96043084 15.29645097 58 20 C51.76529027 22.2251039 44.65780529 21.155015 38.1875 20.625 C25.40565405 19.14080494 25.40565405 19.14080494 13.98291016 23.74121094 C9.73896463 27.69525513 6.33019972 32.20870326 2.88354492 36.85009766 C0.30835312 39.78945462 -2.27133535 40.10235851 -6 41 C-6.66 41.66 -7.32 42.32 -8 43 C-10.79736328 43.22705078 -10.79736328 43.22705078 -14.3203125 43.1953125 C-16.20556641 43.18564453 -16.20556641 43.18564453 -18.12890625 43.17578125 C-20.10697266 43.15064453 -20.10697266 43.15064453 -22.125 43.125 C-23.46483721 43.11496983 -24.80468152 43.10584404 -26.14453125 43.09765625 C-29.42986573 43.07402075 -32.71484465 43.04107234 -36 43 C-34.58113789 40.06198673 -33.12476607 37.80529563 -30.9375 35.375 C-30.31746094 34.68148437 -29.69742188 33.98796875 -29.05859375 33.2734375 C-28.37925781 32.52320313 -27.69992188 31.77296875 -27 31 C-26.26910156 30.18789062 -25.53820312 29.37578125 -24.78515625 28.5390625 C-23.25375483 26.83750537 -21.72119015 25.13699449 -20.1875 23.4375 C-17.70862842 20.67532881 -15.26744853 17.88247594 -12.83203125 15.08203125 C-9.9011905 11.75124635 -6.90771052 8.4771284 -3.91796875 5.19921875 C-1.87480508 2.95177481 -1.87480508 2.95177481 0 0 Z " fill="#000100" transform="translate(87,41)"/>
<path d="M0 0 C0.68383255 0.00424484 1.3676651 0.00848969 2.07221985 0.01286316 C4.25297686 0.02963522 6.43280434 0.06728218 8.61328125 0.10546875 C10.0930856 0.12051761 11.57290445 0.13420567 13.05273438 0.14648438 C16.67738461 0.17953306 20.30149219 0.23130429 23.92578125 0.29296875 C23.00077824 1.55586981 22.07155163 2.81567783 21.140625 4.07421875 C20.62363037 4.77611328 20.10663574 5.47800781 19.57397461 6.20117188 C17.47642823 8.86326303 15.13255283 11.16843416 12.703125 13.5234375 C10.27038988 15.94547928 8.04999595 18.52678266 5.80859375 21.125 C3.0284673 24.32618295 0.17765434 27.46254176 -2.66796875 30.60546875 C-5.04586049 33.06283226 -5.04586049 33.06283226 -6.23071289 35.36914062 C-7.97733047 38.10082027 -9.30569329 39.55844599 -12.07421875 41.29296875 C-18.40627649 42.65827656 -25.08714874 42.04166935 -31.51171875 41.79296875 C-33.31046797 41.75280581 -35.10930305 41.71630995 -36.90820312 41.68359375 C-41.29900523 41.59577822 -45.68566574 41.45794002 -50.07421875 41.29296875 C-48.5481846 38.07666734 -46.97621104 36.00527576 -44.38671875 33.54296875 C-41.79779555 31.02314492 -39.33650362 28.49491501 -37.01171875 25.73046875 C-32.68193458 20.67060387 -27.88854749 16.05882388 -23.14038086 11.39624023 C-22.50237549 10.76661377 -21.86437012 10.1369873 -21.20703125 9.48828125 C-20.62840332 8.92125488 -20.04977539 8.35422852 -19.45361328 7.77001953 C-17.9704894 6.32186709 -17.9704894 6.32186709 -17.07421875 4.29296875 C-15.40359375 4.07640625 -15.40359375 4.07640625 -13.69921875 3.85546875 C-10.14196471 3.70876284 -10.14196471 3.70876284 -8.78979492 1.77612305 C-6.06933515 -0.57577579 -3.52080613 -0.04311191 0 0 Z " fill="#000201" transform="translate(182.07421875,172.70703125)"/>
<path d="M0 0 C7.87301587 6.74829932 7.87301587 6.74829932 10.62109375 9.70703125 C11.23919922 10.36823975 11.85730469 11.02944824 12.49414062 11.71069336 C13.13544922 12.40428955 13.77675781 13.09788574 14.4375 13.8125 C15.83173226 15.31017423 17.22627332 16.80756103 18.62109375 18.3046875 C19.33507324 19.07264648 20.04905273 19.84060547 20.78466797 20.63183594 C23.04028843 23.04306786 25.31559643 25.43410434 27.59765625 27.8203125 C28.33508057 28.5939917 29.07250488 29.3676709 29.83227539 30.16479492 C31.25891546 31.66052557 32.68900664 33.15297337 34.12280273 34.6418457 C34.76290283 35.31562256 35.40300293 35.98939941 36.0625 36.68359375 C36.63097656 37.27712646 37.19945312 37.87065918 37.78515625 38.48217773 C39 40 39 40 39 42 C10.92988817 44.25897567 10.92988817 44.25897567 4.58203125 39.31640625 C1.54382182 36.21540322 -0.69047543 32.66037856 -3 29 C-5.03559821 26.92826247 -5.03559821 26.92826247 -7.0625 25.375 C-10 23 -10 23 -13 20 C-8.71 13.4 -4.42 6.8 0 0 Z " fill="#010201" transform="translate(161,42)"/>
<path d="M0 0 C0.72868286 -0.02424042 1.45736572 -0.04848083 2.20812988 -0.07345581 C8.97578532 -0.28591751 15.74551369 -0.40995725 22.51570415 -0.50775146 C27.05988525 -0.57452579 31.59936299 -0.6695486 36.14111328 -0.83496094 C67.91809592 -1.96354369 67.91809592 -1.96354369 75.34179688 3.46289062 C78.47881402 6.45865281 80.81109334 9.76847966 82.95480347 13.52587891 C84.45533224 16.04963929 86.36901465 18.00607002 88.44262695 20.0703125 C89.04268555 20.71226563 89.64274414 21.35421875 90.26098633 22.015625 C90.8275293 22.62148438 91.39407227 23.22734375 91.9777832 23.8515625 C92.57139648 24.48835938 93.16500977 25.12515625 93.77661133 25.78125 C97.31131822 29.55879935 100.91300331 33.24594783 104.61694336 36.8581543 C106.0402832 38.3515625 106.0402832 38.3515625 107.4777832 40.6640625 C110.03686812 43.42787421 113.42376805 43.53493005 117.0402832 44.3515625 C118.45470194 47.18039997 118.35928652 49.22532995 118.0402832 52.3515625 C116.3527832 54.2890625 116.3527832 54.2890625 114.0402832 55.3515625 C111.4152832 55.2890625 111.4152832 55.2890625 109.0402832 54.3515625 C108.0502832 52.3715625 108.0502832 52.3715625 107.0402832 50.3515625 C84.2702832 50.6815625 61.5002832 51.0115625 38.0402832 51.3515625 C37.5452832 52.3415625 37.5452832 52.3415625 37.0402832 53.3515625 C34.39167894 53.94511864 31.74830998 54.09365519 29.0402832 54.3515625 C26.88525789 51.11902454 26.57172186 50.10005327 27.0402832 46.3515625 C28.1652832 44.5390625 28.1652832 44.5390625 30.0402832 43.3515625 C33.0402832 42.9765625 33.0402832 42.9765625 36.0402832 43.3515625 C36.44674072 43.84825439 36.85319824 44.34494629 37.27197266 44.85668945 C39.99971871 47.16263852 42.9303679 46.72150938 46.33325195 46.64453125 C47.03928055 46.64028641 47.74530914 46.63604156 48.47273254 46.63166809 C50.72480623 46.61489284 52.97598063 46.57724493 55.2277832 46.5390625 C56.75576506 46.52401407 58.28376096 46.51032594 59.81176758 46.49804688 C63.55523017 46.46754609 67.29675177 46.40882899 71.0402832 46.3515625 C67.4102832 42.3915625 63.7802832 38.4315625 60.0402832 34.3515625 C61.0302832 34.3515625 62.0202832 34.3515625 63.0402832 34.3515625 C63.7002832 35.0115625 64.3602832 35.6715625 65.0402832 36.3515625 C66.0302832 36.3515625 67.0202832 36.3515625 68.0402832 36.3515625 C69.3239121 37.95961704 70.5539179 39.61072932 71.75512695 41.28125 C75.77079518 45.89499647 78.38690527 47.11475075 84.48168945 47.546875 C87.19346674 47.60623184 89.89186625 47.55087808 92.6027832 47.4765625 C94.00708114 47.47461682 95.41139294 47.47718613 96.81567383 47.484375 C100.2266581 47.484375 103.63060461 47.43891658 107.0402832 47.3515625 C102.76995123 42.43768013 98.46147617 37.56776039 94.0402832 32.7890625 C93.52119385 32.22678955 93.00210449 31.6645166 92.46728516 31.08520508 C89.26210694 27.62781612 85.9889828 24.26178929 82.6184082 20.96484375 C80.24700103 18.5406082 78.07952081 15.94984811 75.91137695 13.34375 C73.47349787 10.74809586 70.80645685 8.59398658 68.0402832 6.3515625 C67.75306396 6.83625 67.46584473 7.3209375 67.16992188 7.8203125 C65.86711959 10.00433729 64.54777619 12.17788837 63.2277832 14.3515625 C62.55005859 15.49625 62.55005859 15.49625 61.85864258 16.6640625 C61.41713867 17.3859375 60.97563477 18.1078125 60.52075195 18.8515625 C60.11751709 19.521875 59.71428223 20.1921875 59.29882812 20.8828125 C58.8835083 21.3675 58.46818848 21.8521875 58.0402832 22.3515625 C57.0502832 22.3515625 56.0602832 22.3515625 55.0402832 22.3515625 C54.5452832 21.3615625 54.5452832 21.3615625 54.0402832 20.3515625 C55.40869993 17.95609114 56.81694658 15.69818645 58.3527832 13.4140625 C58.76979492 12.78048828 59.18680664 12.14691406 59.61645508 11.49414062 C60.75000674 9.77483022 61.89467032 8.06285989 63.0402832 6.3515625 C63.7002832 5.3615625 64.3602832 4.3715625 65.0402832 3.3515625 C63.73482796 3.35822433 63.73482796 3.35822433 62.40299988 3.36502075 C54.207054 3.40507061 46.01114092 3.43553322 37.81511974 3.45518684 C33.60131346 3.46563058 29.38758793 3.47980049 25.17382812 3.50244141 C21.10842913 3.52414883 17.04310788 3.53612669 12.97765541 3.54131699 C11.42548714 3.54501653 9.8733232 3.55224069 8.32118797 3.56302261 C6.14957814 3.57750976 3.97829089 3.57954163 1.80664062 3.57861328 C0.56975998 3.5830545 -0.66712067 3.58749573 -1.94148254 3.59207153 C-4.9597168 3.3515625 -4.9597168 3.3515625 -7.9597168 1.3515625 C-6.05488954 -0.55326476 -2.59879235 0.0747374 0 0 Z " fill="#18F38A" transform="translate(92.959716796875,36.6484375)"/>
<path d="M0 0 C4.5207278 3.78677828 8.84952552 7.68602518 13 11.875 C13.52053955 12.39747314 14.0410791 12.91994629 14.57739258 13.45825195 C17.95294432 16.87166625 21.15858989 20.38611086 24.265625 24.046875 C27.11516929 27.25582128 30.20314604 30.22276151 33.27734375 33.21484375 C35 35 35 35 35 36 C30.65842948 36.09905303 26.31746146 36.17155301 21.97509766 36.21972656 C20.4987441 36.23981301 19.02246981 36.26708801 17.54638672 36.30175781 C15.42135038 36.35041184 13.29736766 36.37299673 11.171875 36.390625 C9.8940918 36.41157227 8.61630859 36.43251953 7.29980469 36.45410156 C4 36 4 36 1.57617188 34.4375 C-0.61532841 31.04841405 -0.45437719 28.62576297 -0.390625 24.609375 C-0.38496521 23.90476135 -0.37930542 23.20014771 -0.37347412 22.47418213 C-0.35115078 20.23208572 -0.30096754 17.99161012 -0.25 15.75 C-0.22992952 14.22658565 -0.2116797 12.70314614 -0.1953125 11.1796875 C-0.15130118 7.4526017 -0.08230372 3.72645913 0 0 Z " fill="#020503" transform="translate(171,134)"/>
<path d="M0 0 C4.58321382 -0.08704 9.16621534 -0.14040632 13.75 -0.1875 C15.05195312 -0.21263672 16.35390625 -0.23777344 17.6953125 -0.26367188 C19.57089844 -0.27817383 19.57089844 -0.27817383 21.484375 -0.29296875 C22.63647461 -0.3086792 23.78857422 -0.32438965 24.97558594 -0.34057617 C28.40077642 0.04513102 29.77678012 0.35522756 32 3 C32.45410156 6.1862793 32.45410156 6.1862793 32.390625 10.07421875 C32.38496521 10.7580513 32.37930542 11.44188385 32.37347412 12.1464386 C32.35110816 14.32750899 32.30091765 16.50692753 32.25 18.6875 C32.229935 20.16729395 32.21168422 21.6471137 32.1953125 23.12695312 C32.15124474 26.7518376 32.08221822 30.37575756 32 34 C27.6754745 30.4166434 23.69129064 26.75651331 19.9375 22.5625 C19.00348611 21.52524682 18.06854019 20.48883238 17.1328125 19.453125 C16.6368457 18.90333984 16.14087891 18.35355469 15.62988281 17.78710938 C13.83104829 15.81475038 12.00841022 13.86654768 10.1796875 11.921875 C9.53781494 11.23923584 8.89594238 10.55659668 8.23461914 9.85327148 C6.96461981 8.50487514 5.6930006 7.15800244 4.41967773 5.81274414 C0 1.10968234 0 1.10968234 0 0 Z " fill="#000100" transform="translate(51,88)"/>
<path d="M0 0 C22.77 0 45.54 0 69 0 C69 0.33 69 0.66 69 1 C46.89 1.33 24.78 1.66 2 2 C7.341875 7.445 12.68375 12.89 18.1875 18.5 C19.86481201 20.22283203 21.54212402 21.94566406 23.27026367 23.72070312 C24.61016593 25.07520814 25.95100449 26.42878787 27.29296875 27.78125 C27.97991821 28.4937793 28.66686768 29.20630859 29.37463379 29.94042969 C30.37871277 30.94541504 30.37871277 30.94541504 31.40307617 31.97070312 C31.97821457 32.55694458 32.55335297 33.14318604 33.1459198 33.74719238 C35.54238439 35.36649078 37.16307547 35.07603655 40 35 C42.39763185 37.39763185 42.34280586 38.33273498 42.625 41.625 C42.69976562 42.44226563 42.77453125 43.25953125 42.8515625 44.1015625 C42.90054688 44.72804687 42.94953125 45.35453125 43 46 C42.01 46.495 42.01 46.495 41 47 C40.67 57.56 40.34 68.12 40 79 C39.67 79 39.34 79 39 79 C39 68.44 39 57.88 39 47 C37.35 47 35.7 47 34 47 C32 44 32 44 31.3137207 40.79272461 C29.965668 35.83704235 26.55528824 32.83754055 22.98046875 29.31640625 C22.28488358 28.61603745 21.5892984 27.91566864 20.87263489 27.19407654 C19.40519806 25.72324907 17.9314752 24.25866948 16.4519043 22.80004883 C14.18772722 20.56272453 11.95155256 18.29987337 9.71679688 16.03320312 C8.28545529 14.6051642 6.85256419 13.17867634 5.41796875 11.75390625 C4.75008835 11.07590469 4.08220795 10.39790314 3.39408875 9.69935608 C2.76025772 9.08128586 2.1264267 8.46321564 1.47338867 7.82641602 C0.92204758 7.27905289 0.37070648 6.73168976 -0.19734192 6.16773987 C-2.55703356 4.63916047 -4.24523167 4.78683702 -7 5 C-6.67 4.34 -6.34 3.68 -6 3 C-4.35 3 -2.7 3 -1 3 C-0.67 2.01 -0.34 1.02 0 0 Z " fill="#1CBB6C" transform="translate(131,87)"/>
<path d="M0 0 C0.72868286 -0.02424042 1.45736572 -0.04848083 2.20812988 -0.07345581 C8.97578532 -0.28591751 15.74551369 -0.40995725 22.51570415 -0.50775146 C27.05988525 -0.57452579 31.59936299 -0.6695486 36.14111328 -0.83496094 C67.95937682 -1.96566187 67.95937682 -1.96566187 75.44506836 3.5859375 C78.54882194 6.56679659 80.85841392 9.80012777 82.94863892 13.54882812 C84.59807686 16.27269937 86.70281601 18.20661094 89.0402832 20.3515625 C88.7102832 21.0115625 88.3802832 21.6715625 88.0402832 22.3515625 C87.64196289 21.9184375 87.24364258 21.4853125 86.83325195 21.0390625 C86.30344727 20.4821875 85.77364258 19.9253125 85.2277832 19.3515625 C84.70571289 18.7946875 84.18364258 18.2378125 83.64575195 17.6640625 C81.99879353 16.0350975 81.99879353 16.0350975 79.0402832 16.3515625 C76.55981445 14.1640625 76.55981445 14.1640625 73.8527832 11.3515625 C72.95172852 10.4234375 72.05067383 9.4953125 71.12231445 8.5390625 C70.09170898 7.45625 70.09170898 7.45625 69.0402832 6.3515625 C66.04796247 9.98413204 63.38041612 13.73569425 60.7902832 17.6640625 C60.08387695 18.73269531 59.3774707 19.80132812 58.6496582 20.90234375 C58.11856445 21.71058594 57.5874707 22.51882812 57.0402832 23.3515625 C56.0502832 23.0215625 55.0602832 22.6915625 54.0402832 22.3515625 C55.45321758 18.46599297 57.28894307 15.18942888 59.5402832 11.7265625 C60.1487207 10.78554688 60.7571582 9.84453125 61.3840332 8.875 C62.59557972 7.02910602 63.81551703 5.18871175 65.0402832 3.3515625 C63.73482796 3.35822433 63.73482796 3.35822433 62.40299988 3.36502075 C54.207054 3.40507061 46.01114092 3.43553322 37.81511974 3.45518684 C33.60131346 3.46563058 29.38758793 3.47980049 25.17382812 3.50244141 C21.10842913 3.52414883 17.04310788 3.53612669 12.97765541 3.54131699 C11.42548714 3.54501653 9.8733232 3.55224069 8.32118797 3.56302261 C6.14957814 3.57750976 3.97829089 3.57954163 1.80664062 3.57861328 C0.56975998 3.5830545 -0.66712067 3.58749573 -1.94148254 3.59207153 C-4.9597168 3.3515625 -4.9597168 3.3515625 -7.9597168 1.3515625 C-6.05488954 -0.55326476 -2.59879235 0.0747374 0 0 Z " fill="#1FEE89" transform="translate(92.959716796875,36.6484375)"/>
<path d="M0 0 C0.68318802 -0.00014603 1.36637604 -0.00029205 2.07026672 -0.0004425 C4.32658065 0.0002537 6.58281184 0.00803243 8.83911133 0.01586914 C10.40424047 0.01773436 11.96937019 0.01915777 13.53450012 0.02015686 C17.65267551 0.02397387 21.7708156 0.03379721 25.88897705 0.04486084 C30.09175133 0.05509248 34.29453131 0.05965824 38.49731445 0.06469727 C46.74277336 0.0754202 54.98820358 0.09248685 63.23364258 0.11352539 C63.72864258 2.09352539 63.72864258 2.09352539 64.23364258 4.11352539 C63.35969345 4.0957605 62.48574432 4.07799561 61.58531189 4.05969238 C53.33195935 3.89911232 45.07913446 3.77745567 36.82457638 3.69902802 C32.58110123 3.65734998 28.33892117 3.60086402 24.09619141 3.51000977 C19.99823436 3.42280918 15.90151924 3.37519573 11.80270576 3.35450745 C10.24249282 3.33977359 8.68234469 3.31099886 7.1226635 3.26768494 C-1.48402131 2.79133268 -1.48402131 2.79133268 -9.23760986 5.8495636 C-11.0075544 7.85473853 -12.38844761 9.82822903 -13.76635742 12.11352539 C-24.15980004 23.83483687 -24.15980004 23.83483687 -27.76635742 27.11352539 C-28.42635742 27.11352539 -29.08635742 27.11352539 -29.76635742 27.11352539 C-29.54937192 21.46105316 -25.75340664 18.46981119 -22.01635742 14.67602539 C-20.7700854 13.38709053 -19.52527067 12.09674485 -18.28198242 10.80493164 C-17.68192383 10.18634277 -17.08186523 9.56775391 -16.46362305 8.93041992 C-14.88764581 7.24336258 -13.43802562 5.50860509 -12.00073242 3.70336914 C-8.41803775 -0.44929968 -5.22191517 -0.00937507 0 0 Z " fill="#14B766" transform="translate(93.766357421875,37.886474609375)"/>
<path d="M0 0 C1.65152265 1.41067559 3.30222104 2.8223253 4.94921875 4.23828125 C6.26070105 5.36490699 7.57549944 6.48769128 8.89453125 7.60546875 C22.33807209 19.13241517 22.33807209 19.13241517 26.53515625 25.23046875 C28.32384704 27.39120722 29.40106137 27.6525826 32.125 28.125 C34.043125 28.558125 34.043125 28.558125 36 29 C37.41441874 31.82883747 37.31900332 33.87376745 37 37 C35.3125 38.9375 35.3125 38.9375 33 40 C30.4375 40 30.4375 40 28 39 C26.06670171 36.51433077 25.09962006 34.68959222 24.6484375 31.56640625 C23.85843723 28.43971844 22.73329513 27.35002932 20.375 25.1875 C17.6205451 22.57492644 15.0224804 19.95456127 12.5625 17.0625 C9.20394808 13.12086615 5.51599522 9.59915416 1.72265625 6.078125 C0 4 0 4 0 0 Z " fill="#1DDD7F" transform="translate(174,52)"/>
<path d="M0 0 C2 3 2 3 1.75 6.625 C1.37875 8.295625 1.37875 8.295625 1 10 C-1.79870027 11.39935013 -3.90498792 11.25265405 -7 11 C-7.42618118 10.50876144 -7.85236237 10.01752289 -8.29145813 9.51139832 C-10.86533 7.23451785 -13.00979201 7.59990674 -16.39916992 7.56762695 C-17.04334366 7.5574353 -17.6875174 7.54724365 -18.35121155 7.53674316 C-20.47771869 7.50657961 -22.60377566 7.49734269 -24.73046875 7.48828125 C-26.20593263 7.47143694 -27.68138213 7.45328703 -29.15681458 7.43388367 C-33.03819284 7.38635007 -36.91951285 7.35656274 -40.80108643 7.33044434 C-44.76269031 7.30065556 -48.72409337 7.25411952 -52.68554688 7.20898438 C-60.45693168 7.12291317 -68.22833102 7.05558519 -76 7 C-76 6.01 -76 5.02 -76 4 C-53.89 4 -31.78 4 -9 4 C-8.67 2.68 -8.34 1.36 -8 0 C-4.67212881 -1.1092904 -3.3006216 -1.01557588 0 0 Z " fill="#18ED88" transform="translate(130,166)"/>
<path d="M0 0 C0.66 0.66 1.32 1.32 2 2 C1.91383423 3.13731567 1.91383423 3.13731567 1.82592773 4.29760742 C2.08070635 8.25292925 3.97139775 9.52417721 6.78515625 12.23828125 C7.27906357 12.72274216 7.77297089 13.20720306 8.28184509 13.7063446 C9.86400367 15.25397352 11.46224317 16.78361217 13.0625 18.3125 C15.14136772 20.32466951 17.21331374 22.34388312 19.28515625 24.36328125 C19.78697418 24.84878448 20.28879211 25.33428772 20.80581665 25.83450317 C24.26674414 29.20526321 27.46413648 32.70789397 30.49780273 36.46557617 C33.49493901 39.52700986 36.86808521 40.31134753 41 41 C41 41.99 41 42.98 41 44 C40.67 43.67 40.34 43.34 40 43 C37.67182036 42.63239269 35.3381615 42.29758419 33 42 C33 44.64 33 47.28 33 50 C32.01 49.505 32.01 49.505 31 49 C31.08064697 48.10200684 31.16129395 47.20401367 31.24438477 46.27880859 C30.94258678 42.22971069 29.99116815 41.29449635 27.08984375 38.5390625 C25.85137695 37.33636719 25.85137695 37.33636719 24.58789062 36.109375 C23.71326172 35.28953125 22.83863281 34.4696875 21.9375 33.625 C20.23594977 31.99461727 18.53669801 30.36183209 16.83984375 28.7265625 C16.01605225 27.93540039 15.19226074 27.14423828 14.34350586 26.32910156 C11.56585688 23.56852533 9.00026849 20.67362377 6.45874023 17.69677734 C4.74629296 15.70489307 2.93861514 13.83782708 1.0625 12 C0.47597656 11.4225 -0.11054687 10.845 -0.71484375 10.25 C-1.13894531 9.8375 -1.56304687 9.425 -2 9 C-1.34 8.67 -0.68 8.34 0 8 C0 5.36 0 2.72 0 0 Z " fill="#1DDE7F" transform="translate(89,82)"/>
<path d="M0 0 C3.1875 0.3125 3.1875 0.3125 5.5625 2.3125 C6.09875 2.9725 6.635 3.6325 7.1875 4.3125 C6.8575 5.3025 6.5275 6.2925 6.1875 7.3125 C19.3875 7.3125 32.5875 7.3125 46.1875 7.3125 C46.1875 7.6425 46.1875 7.9725 46.1875 8.3125 C44.99672852 8.32708252 43.80595703 8.34166504 42.57910156 8.35668945 C38.15822423 8.41469235 33.73785519 8.49192515 29.31738281 8.57495117 C27.40470636 8.60819114 25.49193203 8.63622599 23.57910156 8.65893555 C20.82835206 8.69249869 18.07849868 8.74481489 15.328125 8.80078125 C14.47381897 8.80717117 13.61951294 8.8135611 12.73931885 8.82014465 C8.16634348 8.93321778 5.72088931 9.17611478 2.1875 12.3125 C-1.0625 12 -1.0625 12 -3.8125 11.3125 C-4.1425 10.3225 -4.4725 9.3325 -4.8125 8.3125 C-14.7125 8.3125 -24.6125 8.3125 -34.8125 8.3125 C-34.8125 7.3225 -34.8125 6.3325 -34.8125 5.3125 C-24.9125 5.3125 -15.0125 5.3125 -4.8125 5.3125 C-4.4825 3.9925 -4.1525 2.6725 -3.8125 1.3125 C-2.8125 0.3125 -2.8125 0.3125 0 0 Z " fill="#11C46B" transform="translate(125.8125,209.6875)"/>
<path d="M0 0 C1.6415049 3.2830098 0.51888624 6.42545033 0 10 C-0.66 10 -1.32 10 -2 10 C-2 20.56 -2 31.12 -2 42 C-2.33 42 -2.66 42 -3 42 C-3 32.1 -3 22.2 -3 12 C-3.66 12 -4.32 12 -5 12 C-5 21.9 -5 31.8 -5 42 C-5.33 42 -5.66 42 -6 42 C-6 31.77 -6 21.54 -6 11 C-10.03815942 8.98092029 -11.90268578 8.71030135 -16.296875 8.5859375 C-17.50214844 8.54726562 -18.70742187 8.50859375 -19.94921875 8.46875 C-21.20347656 8.4378125 -22.45773438 8.406875 -23.75 8.375 C-25.01972656 8.33632812 -26.28945313 8.29765625 -27.59765625 8.2578125 C-30.7316257 8.16355778 -33.86558949 8.07794834 -37 8 C-37 7.01 -37 6.02 -37 5 C-36.16750732 4.98541748 -35.33501465 4.97083496 -34.47729492 4.95581055 C-31.38510347 4.8947137 -28.29357918 4.82055444 -25.2019043 4.73754883 C-23.2070937 4.68798681 -21.21192743 4.65348867 -19.21679688 4.61914062 C-17.96318359 4.58369141 -16.70957031 4.54824219 -15.41796875 4.51171875 C-14.26063232 4.48553467 -13.1032959 4.45935059 -11.91088867 4.43237305 C-8.68376934 3.95302822 -8.04985215 3.38603253 -6 1 C-2.8125 0.3125 -2.8125 0.3125 0 0 Z " fill="#13C570" transform="translate(89,80)"/>
<path d="M0 0 C0.66 1.32 1.32 2.64 2 4 C-5.90085408 15.73425404 -5.90085408 15.73425404 -12.29467773 17.70855713 C-18.43415198 18.62285889 -24.58043382 18.18921314 -30.75 17.8125 C-32.6221932 17.74716454 -34.49460748 17.68787108 -36.3671875 17.63476562 C-40.91699963 17.4927286 -45.45601511 17.26926138 -50 17 C-49.505 15.515 -49.505 15.515 -49 14 C-47.94200195 14.03778564 -46.88400391 14.07557129 -45.79394531 14.11450195 C-41.81260107 14.23892253 -37.83421111 14.27519221 -33.85107422 14.28686523 C-32.13811668 14.30374721 -30.42520792 14.34353885 -28.71337891 14.40795898 C-17.62909485 14.94797965 -17.62909485 14.94797965 -8.11914062 10.01708984 C-5.0716155 6.90939138 -2.48494093 3.56828798 0 0 Z " fill="#17EA83" transform="translate(182,200)"/>
<path d="M0 0 C2 2 2 2 2 5 C24.11 5 46.22 5 69 5 C69 5.33 69 5.66 69 6 C46.89 6 24.78 6 2 6 C1.67 7.32 1.34 8.64 1 10 C-5.0546875 10.9765625 -5.0546875 10.9765625 -7 11 C-9 9 -9 9 -9.375 5.5625 C-9 2 -9 2 -7.3125 0 C-4.39120636 -1.26326211 -2.98201353 -1.02016252 0 0 Z " fill="#08DA74" transform="translate(52,166)"/>
<path d="M0 0 C0.66 0 1.32 0 2 0 C2 9.9 2 19.8 2 30 C3.32 30.33 4.64 30.66 6 31 C7.125 37.625 7.125 37.625 6 41 C-0.15234375 41.09765625 -0.15234375 41.09765625 -2 41 C-3 40 -3 40 -3.09765625 37.49609375 C-3.08605469 36.48675781 -3.07445313 35.47742188 -3.0625 34.4375 C-3.05347656 33.42558594 -3.04445313 32.41367188 -3.03515625 31.37109375 C-3.02355469 30.58863281 -3.01195313 29.80617188 -3 29 C-2.01 29.33 -1.02 29.66 0 30 C0 20.1 0 10.2 0 0 Z " fill="#0BE27D" transform="translate(84,92)"/>
<path d="M0 0 C1.875 1.375 1.875 1.375 3 3 C3 3.66 3 4.32 3 5 C12.9 5 22.8 5 33 5 C33 5.33 33 5.66 33 6 C32.10168457 6.01458252 31.20336914 6.02916504 30.27783203 6.04418945 C26.9489341 6.10519697 23.62087117 6.17933628 20.29248047 6.26245117 C18.85118658 6.29573178 17.40976137 6.32375404 15.96826172 6.34643555 C13.89754203 6.3799262 11.82802907 6.432233 9.7578125 6.48828125 C8.5114502 6.51446533 7.26508789 6.54064941 5.98095703 6.56762695 C4.99724121 6.71031006 4.01352539 6.85299316 3 7 C2.01 8.485 2.01 8.485 1 10 C-0.9453125 10.51171875 -0.9453125 10.51171875 -3.125 10.6875 C-4.40375 10.790625 -5.6825 10.89375 -7 11 C-9.15502531 7.76746204 -9.46856135 6.74849077 -9 3 C-6.73529086 -0.64869805 -4.03159541 -0.50394943 0 0 Z " fill="#0DDA75" transform="translate(129,80)"/>
<path d="M0 0 C2.05078125 0.03255208 4.1015625 0.06510417 6.15234375 0.09765625 C6.48234375 3.06765625 6.81234375 6.03765625 7.15234375 9.09765625 C6.16234375 9.59265625 6.16234375 9.59265625 5.15234375 10.09765625 C4.82234375 20.65765625 4.49234375 31.21765625 4.15234375 42.09765625 C3.82234375 42.09765625 3.49234375 42.09765625 3.15234375 42.09765625 C3.15234375 31.53765625 3.15234375 20.97765625 3.15234375 10.09765625 C1.50234375 10.09765625 -0.14765625 10.09765625 -1.84765625 10.09765625 C-2.84765625 9.09765625 -2.84765625 9.09765625 -2.98046875 7.28515625 C-2.97789062 6.56328125 -2.9753125 5.84140625 -2.97265625 5.09765625 C-2.97523438 4.37578125 -2.9778125 3.65390625 -2.98046875 2.91015625 C-2.79798679 0.41981421 -2.49538581 0.13189143 0 0 Z " fill="#14C66E" transform="translate(166.84765625,123.90234375)"/>
<path d="M0 0 C0.66 0.33 1.32 0.66 2 1 C2.09144287 2.04873291 2.18288574 3.09746582 2.27709961 4.17797852 C3.16156847 8.85422304 5.23090666 11.00753273 8.56640625 14.15234375 C9.11989243 14.69734024 9.6733786 15.24233673 10.24363708 15.80384827 C12.00293868 17.52974451 13.78198218 19.23352735 15.5625 20.9375 C16.76373912 22.10862314 17.96362497 23.28113606 19.16210938 24.45507812 C22.09265345 27.31970919 25.04108086 30.16469934 28 33 C27.67 33.66 27.34 34.32 27 35 C26.16855469 34.13375 25.33710938 33.2675 24.48046875 32.375 C23.38321294 31.24960943 22.28553466 30.12463066 21.1875 29 C20.64029297 28.42765625 20.09308594 27.8553125 19.52929688 27.265625 C18.07608846 25.78599462 16.54183626 24.38703342 15 23 C14.01 23 13.02 23 12 23 C10.46606445 21.80664062 10.46606445 21.80664062 8.86328125 20.15625 C8.28642578 19.56972656 7.70957031 18.98320312 7.11523438 18.37890625 C6.52033203 17.75886719 5.92542969 17.13882813 5.3125 16.5 C4.70599609 15.87996094 4.09949219 15.25992188 3.47460938 14.62109375 C1.97626257 13.08735293 0.48723507 11.54451802 -1 10 C-0.67 9.01 -0.34 8.02 0 7 C0.03954234 4.66700175 0.04401732 2.33291811 0 0 Z " fill="#20DE7F" transform="translate(173,125)"/>
<path d="M0 0 C2.97 0 5.94 0 9 0 C10.41441874 2.82883747 10.31900332 4.87376745 10 8 C8.3125 9.9375 8.3125 9.9375 6 11 C3.4375 11 3.4375 11 1 10 C-0.9375 7.75 -0.9375 7.75 -2 5 C-1.1875 2.1875 -1.1875 2.1875 0 0 Z " fill="#10D775" transform="translate(201,81)"/>
<path d="M0 0 C0.99 0 1.98 0 3 0 C3.495 1.485 3.495 1.485 4 3 C3.67 3.66 3.34 4.32 3 5 C3.83144531 5.61488281 3.83144531 5.61488281 4.6796875 6.2421875 C5.40414062 6.78101562 6.12859375 7.31984375 6.875 7.875 C7.59429687 8.40867187 8.31359375 8.94234375 9.0546875 9.4921875 C11 11 11 11 13 13 C12.67 13.99 12.34 14.98 12 16 C11.649375 15.566875 11.29875 15.13375 10.9375 14.6875 C8.9259628 12.74495489 8.9259628 12.74495489 5.5 11.625 C2 10 2 10 0.84643555 7.44262695 C-0.69464273 4.88226146 -0.69464273 4.88226146 -2.80722046 4.52059937 C-5.22998052 4.32281824 -7.61208257 4.28184579 -10.04296875 4.29296875 C-10.9265657 4.27784744 -11.81016266 4.26272614 -12.72053528 4.24714661 C-15.54311409 4.20415367 -18.36462592 4.19542066 -21.1875 4.1875 C-23.10094006 4.16436464 -25.01435457 4.13900131 -26.92773438 4.11132812 C-31.61858438 4.04836143 -36.30876449 4.01611674 -41 4 C-41 3.67 -41 3.34 -41 3 C-27.8 2.67 -14.6 2.34 -1 2 C-0.67 1.34 -0.34 0.68 0 0 Z " fill="#19C06D" transform="translate(146,58)"/>
<path d="M0 0 C3.375 -0.125 3.375 -0.125 7 0 C9 2 9 2 9.25 5 C9 8 9 8 7 10 C3.9375 10.1875 3.9375 10.1875 1 10 C0 9 0 9 -0.09765625 6.93359375 C-0.08605469 6.10988281 -0.07445313 5.28617188 -0.0625 4.4375 C-0.05347656 3.61121094 -0.04445313 2.78492187 -0.03515625 1.93359375 C-0.02355469 1.29550781 -0.01195313 0.65742187 0 0 Z " fill="#0CD874" transform="translate(122,124)"/>
<path d="M0 0 C0.33 0.99 0.66 1.98 1 3 C-0.39080108 4.58775549 -1.78788404 6.17000939 -3.1875 7.75 C-3.96480469 8.63171875 -4.74210938 9.5134375 -5.54296875 10.421875 C-7.88455246 12.87886268 -10.30158265 14.94862766 -13 17 C-13 16.34 -13 15.68 -13 15 C-13.66 14.67 -14.32 14.34 -15 14 C-13.59106853 12.36828877 -12.17254042 10.74486055 -10.75 9.125 C-9.96109375 8.22007812 -9.1721875 7.31515625 -8.359375 6.3828125 C-6.21790805 4.2200727 -4.72670214 3.20021504 -2 2 C-1.34 1.34 -0.68 0.68 0 0 Z " fill="#17D879" transform="translate(144,196)"/>
<path d="M0 0 C4.51261739 3.57460142 8.26838177 6.87821583 11 12 C10.67 12.99 10.34 13.98 10 15 C9.27554688 14.21753906 8.55109375 13.43507812 7.8046875 12.62890625 C6.82881262 11.60611431 5.85221141 10.58401504 4.875 9.5625 C4.400625 9.04623047 3.92625 8.52996094 3.4375 7.99804688 C0.11460101 4.56288779 -2.22375688 3.27637015 -7 3 C-7 2.67 -7 2.34 -7 2 C-4.69 2 -2.38 2 0 2 C0 1.34 0 0.68 0 0 Z " fill="#1BEB85" transform="translate(53,174)"/>
<path d="M0 0 C0.66 0 1.32 0 2 0 C3.625 2.5 3.625 2.5 5 5 C3.68 5.99 2.36 6.98 1 8 C0.34 7.34 -0.32 6.68 -1 6 C-4.10756015 5.62677573 -4.10756015 5.62677573 -7.7578125 5.5859375 C-8.42086395 5.56657135 -9.08391541 5.5472052 -9.76705933 5.5272522 C-11.88624177 5.46744046 -14.0054785 5.42106612 -16.125 5.375 C-17.56122169 5.33682155 -18.99742045 5.29776989 -20.43359375 5.2578125 C-23.95551936 5.16173875 -27.47761608 5.07771358 -31 5 C-31 4.67 -31 4.34 -31 4 C-16.15 3.505 -16.15 3.505 -1 3 C-0.67 2.01 -0.34 1.02 0 0 Z " fill="#00DF71" transform="translate(206,167)"/>
<path d="M0 0 C0.66 0.33 1.32 0.66 2 1 C0.40517782 2.67561054 -1.20116844 4.34025934 -2.8125 6 C-3.70582031 6.928125 -4.59914062 7.85625 -5.51953125 8.8125 C-8 11 -8 11 -11 11 C-13.17032476 12.43990623 -13.17032476 12.43990623 -15 14 C-13.41507527 10.16752664 -10.96883386 7.66913709 -8.0625 4.75 C-7.18722656 3.85796875 -6.31195313 2.9659375 -5.41015625 2.046875 C-3 0 -3 0 0 0 Z " fill="#1DEA85" transform="translate(154,187)"/>
<path d="M0 0 C4.18423892 3.50897269 8.19588166 7.08060535 12 11 C11.67 11.66 11.34 12.32 11 13 C10.45730469 12.4225 9.91460937 11.845 9.35546875 11.25 C8.64003906 10.5075 7.92460938 9.765 7.1875 9 C6.47980469 8.2575 5.77210937 7.515 5.04296875 6.75 C3.06860631 4.67472392 3.06860631 4.67472392 0 5 C-0.66 4.01 -1.32 3.02 -2 2 C-1.34 2 -0.68 2 0 2 C0 1.34 0 0.68 0 0 Z " fill="#23DD80" transform="translate(90,131)"/>
<path d="M0 0 C0.86625 0.4640625 0.86625 0.4640625 1.75 0.9375 C3.90961967 2.06296231 3.90961967 2.06296231 6.046875 2.43359375 C8.4839 3.140331 9.52820064 4.22330523 11.25 6.0625 C11.77078125 6.61035156 12.2915625 7.15820312 12.828125 7.72265625 C13.21484375 8.14417969 13.6015625 8.56570312 14 9 C13.67 9.66 13.34 10.32 13 11 C12.401875 10.34 11.80375 9.68 11.1875 9 C9.12498166 6.6626154 9.12498166 6.6626154 6 7 C4.39453125 5.46875 4.39453125 5.46875 2.8125 3.5 C2.28269531 2.8503125 1.75289062 2.200625 1.20703125 1.53125 C0.80871094 1.0259375 0.41039062 0.520625 0 0 Z " fill="#24E786" transform="translate(153,70)"/>
<path d="M0 0 C0.99 0.33 1.98 0.66 3 1 C1.8141763 4.37503669 0.72426311 6.64722731 -2 9 C-2.66 8.67 -3.32 8.34 -4 8 C-2.87548273 5.0280615 -1.77706209 2.66559313 0 0 Z " fill="#1CE784" transform="translate(151,51)"/>
<path d="M0 0 C0.66 0 1.32 0 2 0 C3.625 2.5 3.625 2.5 5 5 C3.68 5.99 2.36 6.98 1 8 C-1 6 -1 6 -1.1875 3.4375 C-1 1 -1 1 0 0 Z " fill="#0DDA74" transform="translate(206,167)"/>
<path d="M0 0 C0.75 1.75 0.75 1.75 1 4 C-0.9375 6.25 -0.9375 6.25 -3 8 C-3 7.01 -3 6.02 -3 5 C-5.31 5 -7.62 5 -10 5 C-10 4.67 -10 4.34 -10 4 C-8.02 4 -6.04 4 -4 4 C-3.67 3.01 -3.34 2.02 -3 1 C-2.01 0.67 -1.02 0.34 0 0 Z " fill="#1CDA7F" transform="translate(53,76)"/>
<path d="M0 0 C0.33 1.32 0.66 2.64 1 4 C-0.65 5.32 -2.3 6.64 -4 8 C-4.6875 6.1875 -4.6875 6.1875 -5 4 C-3.47698387 2.0418364 -2.21773977 1.10886989 0 0 Z " fill="#19D87A" transform="translate(188,195)"/>
<path d="M0 0 C0.33 1.32 0.66 2.64 1 4 C-2.75 7 -2.75 7 -5 7 C-4.75 4.625 -4.75 4.625 -4 2 C-1.9375 0.6875 -1.9375 0.6875 0 0 Z " fill="#18D97A" transform="translate(69,58)"/>
<path d="M0 0 C2.0625 1.5625 2.0625 1.5625 4 4 C3.75 7.75 3.75 7.75 3 11 C2.34 10.67 1.68 10.34 1 10 C0.5859375 7.71484375 0.5859375 7.71484375 0.375 4.9375 C0.30023438 4.01839844 0.22546875 3.09929687 0.1484375 2.15234375 C0.09945312 1.44207031 0.05046875 0.73179688 0 0 Z " fill="#14DC7C" transform="translate(78,120)"/>
<path d="M0 0 C1.98 1.65 3.96 3.3 6 5 C5.67 5.99 5.34 6.98 5 8 C2.5 6.25 2.5 6.25 0 4 C0 2.68 0 1.36 0 0 Z " fill="#12D376" transform="translate(161,76)"/>
<path d="M0 0 C0.99 0.33 1.98 0.66 3 1 C2.34 2.32 1.68 3.64 1 5 C0.34 4.67 -0.32 4.34 -1 4 C-2.99021521 4.09723451 -2.99021521 4.09723451 -5.125 4.4375 C-7.043125 4.7159375 -7.043125 4.7159375 -9 5 C-8.67 4.34 -8.34 3.68 -8 3 C-5.67793475 2.29508733 -3.34406932 1.62787571 -1 1 C-0.67 0.67 -0.34 0.34 0 0 Z " fill="#1EEC8B" transform="translate(90,77)"/>
<path d="M0 0 C0.66 1.32 1.32 2.64 2 4 C0.68 4.99 -0.64 5.98 -2 7 C-2.66 6.67 -3.32 6.34 -4 6 C-2.84826645 3.53199953 -1.95216435 1.95216435 0 0 Z " fill="#1DF089" transform="translate(80,44)"/>
<path d="M0 0 C0.99 0 1.98 0 3 0 C2.67 1.32 2.34 2.64 2 4 C1.38125 4.144375 0.7625 4.28875 0.125 4.4375 C-2.03258322 4.93152225 -2.03258322 4.93152225 -4 6 C-2.84826645 3.53199953 -1.95216435 1.95216435 0 0 Z " fill="#1EEB86" transform="translate(198,182)"/>
<path d="M0 0 C0.99 0.33 1.98 0.66 3 1 C2.3125 2.9375 2.3125 2.9375 1 5 C-1.625 5.75 -1.625 5.75 -4 6 C-2.84826645 3.53199953 -1.95216435 1.95216435 0 0 Z " fill="#20EC87" transform="translate(63,63)"/>
<path d="M0 0 C0.763125 0.61875 1.52625 1.2375 2.3125 1.875 C4.99625809 4.05597052 4.99625809 4.05597052 8 6 C6.02 6.33 4.04 6.66 2 7 C0 4 0 4 0 0 Z " fill="#20EB85" transform="translate(118,161)"/>
<path d="M0 0 C0.99 0 1.98 0 3 0 C2.67 1.32 2.34 2.64 2 4 C0.35 4.33 -1.3 4.66 -3 5 C-1.125 1.125 -1.125 1.125 0 0 Z " fill="#1CEB86" transform="translate(189,192)"/>
<path d="M0 0 C0.66 1.32 1.32 2.64 2 4 C-1 6 -1 6 -4 6 C-2.84826645 3.53199953 -1.95216435 1.95216435 0 0 Z " fill="#1EEF88" transform="translate(71,54)"/>
</svg>
